<mxfile host="app.diagrams.net" modified="2023-03-25T10:31:46.406Z" agent="Mozilla/5.0 (Windows NT 10.0; Win64; x64) AppleWebKit/537.36 (KHTML, like Gecko) Chrome/111.0.0.0 Safari/537.36" etag="oIWIwXMV9ylMqRM_E1l1" version="21.1.1" type="device">
  <diagram name="Страница 1" id="Q_Qv9w-BCrmLvrBAd3hb">
    <mxGraphModel dx="1434" dy="764" grid="1" gridSize="10" guides="1" tooltips="1" connect="1" arrows="1" fold="1" page="1" pageScale="1" pageWidth="827" pageHeight="1169" math="0" shadow="0">
      <root>
        <mxCell id="0" />
        <mxCell id="1" parent="0" />
        <mxCell id="ta54Vy7XyeMduqMrXOKB-3" style="edgeStyle=orthogonalEdgeStyle;rounded=0;orthogonalLoop=1;jettySize=auto;html=1;exitX=0.5;exitY=1;exitDx=0;exitDy=0;" parent="1" source="ta54Vy7XyeMduqMrXOKB-1" edge="1">
          <mxGeometry relative="1" as="geometry">
            <mxPoint x="250" y="150" as="targetPoint" />
          </mxGeometry>
        </mxCell>
        <mxCell id="ta54Vy7XyeMduqMrXOKB-1" value="CreateNewArray" style="rounded=1;whiteSpace=wrap;html=1;fillColor=#f8cecc;strokeColor=#b85450;" parent="1" vertex="1">
          <mxGeometry x="190" y="40" width="120" height="60" as="geometry" />
        </mxCell>
        <mxCell id="ta54Vy7XyeMduqMrXOKB-5" style="edgeStyle=orthogonalEdgeStyle;rounded=0;orthogonalLoop=1;jettySize=auto;html=1;exitX=0.5;exitY=1;exitDx=0;exitDy=0;" parent="1" source="ta54Vy7XyeMduqMrXOKB-4" edge="1">
          <mxGeometry relative="1" as="geometry">
            <mxPoint x="250" y="280" as="targetPoint" />
          </mxGeometry>
        </mxCell>
        <mxCell id="ta54Vy7XyeMduqMrXOKB-4" value="&lt;div&gt;string [] array&lt;/div&gt;&lt;div&gt;string[] newArray&lt;br&gt;&lt;/div&gt;&lt;div&gt;int size &lt;br&gt;&lt;/div&gt;&lt;div&gt;int count = 0&lt;br&gt;&lt;/div&gt;" style="shape=parallelogram;perimeter=parallelogramPerimeter;whiteSpace=wrap;html=1;fixedSize=1;" parent="1" vertex="1">
          <mxGeometry x="175" y="150" width="150" height="80" as="geometry" />
        </mxCell>
        <mxCell id="ta54Vy7XyeMduqMrXOKB-9" value="Yes" style="edgeStyle=orthogonalEdgeStyle;rounded=0;orthogonalLoop=1;jettySize=auto;html=1;exitX=0.5;exitY=1;exitDx=0;exitDy=0;" parent="1" source="ta54Vy7XyeMduqMrXOKB-6" edge="1">
          <mxGeometry relative="1" as="geometry">
            <mxPoint x="250" y="470" as="targetPoint" />
          </mxGeometry>
        </mxCell>
        <mxCell id="ta54Vy7XyeMduqMrXOKB-20" value="No" style="edgeStyle=orthogonalEdgeStyle;rounded=0;orthogonalLoop=1;jettySize=auto;html=1;exitX=1;exitY=0.5;exitDx=0;exitDy=0;" parent="1" source="ta54Vy7XyeMduqMrXOKB-6" edge="1">
          <mxGeometry relative="1" as="geometry">
            <mxPoint x="420" y="354.66666666666674" as="targetPoint" />
          </mxGeometry>
        </mxCell>
        <mxCell id="ta54Vy7XyeMduqMrXOKB-6" value="&lt;div&gt;int i = 0&lt;/div&gt;&lt;div&gt;i &amp;lt; array.Length&lt;/div&gt;&lt;div&gt;i++&lt;br&gt;&lt;/div&gt;" style="rhombus;whiteSpace=wrap;html=1;" parent="1" vertex="1">
          <mxGeometry x="150" y="280" width="200" height="150" as="geometry" />
        </mxCell>
        <mxCell id="ta54Vy7XyeMduqMrXOKB-12" value="No" style="edgeStyle=orthogonalEdgeStyle;rounded=0;orthogonalLoop=1;jettySize=auto;html=1;exitX=0;exitY=0.5;exitDx=0;exitDy=0;entryX=0;entryY=0.5;entryDx=0;entryDy=0;" parent="1" source="ta54Vy7XyeMduqMrXOKB-10" target="ta54Vy7XyeMduqMrXOKB-6" edge="1">
          <mxGeometry x="-0.76" relative="1" as="geometry">
            <mxPoint x="130" y="350" as="targetPoint" />
            <mxPoint as="offset" />
          </mxGeometry>
        </mxCell>
        <mxCell id="ta54Vy7XyeMduqMrXOKB-13" value="Yes" style="edgeStyle=orthogonalEdgeStyle;rounded=0;orthogonalLoop=1;jettySize=auto;html=1;exitX=0.5;exitY=1;exitDx=0;exitDy=0;" parent="1" source="ta54Vy7XyeMduqMrXOKB-10" edge="1">
          <mxGeometry relative="1" as="geometry">
            <mxPoint x="250" y="630" as="targetPoint" />
          </mxGeometry>
        </mxCell>
        <mxCell id="ta54Vy7XyeMduqMrXOKB-10" value="array[i].Length &amp;lt; = 3" style="rhombus;whiteSpace=wrap;html=1;" parent="1" vertex="1">
          <mxGeometry x="190" y="470" width="120" height="110" as="geometry" />
        </mxCell>
        <mxCell id="ta54Vy7XyeMduqMrXOKB-15" style="edgeStyle=orthogonalEdgeStyle;rounded=0;orthogonalLoop=1;jettySize=auto;html=1;exitX=0;exitY=0.5;exitDx=0;exitDy=0;" parent="1" source="ta54Vy7XyeMduqMrXOKB-14" edge="1">
          <mxGeometry relative="1" as="geometry">
            <mxPoint x="130" y="520" as="targetPoint" />
            <Array as="points">
              <mxPoint x="130" y="665" />
            </Array>
          </mxGeometry>
        </mxCell>
        <mxCell id="ta54Vy7XyeMduqMrXOKB-14" value="&lt;div&gt;newArray[count] = array[i]&lt;/div&gt;count++" style="rounded=0;whiteSpace=wrap;html=1;" parent="1" vertex="1">
          <mxGeometry x="180" y="630" width="140" height="70" as="geometry" />
        </mxCell>
        <mxCell id="ta54Vy7XyeMduqMrXOKB-21" style="edgeStyle=orthogonalEdgeStyle;rounded=0;orthogonalLoop=1;jettySize=auto;html=1;exitX=1;exitY=0.5;exitDx=0;exitDy=0;entryX=0;entryY=0.576;entryDx=0;entryDy=0;entryPerimeter=0;" parent="1" source="ta54Vy7XyeMduqMrXOKB-16" target="ta54Vy7XyeMduqMrXOKB-18" edge="1">
          <mxGeometry relative="1" as="geometry" />
        </mxCell>
        <mxCell id="ta54Vy7XyeMduqMrXOKB-16" value="ShowArray (newArray)" style="shape=document;whiteSpace=wrap;html=1;boundedLbl=1;" parent="1" vertex="1">
          <mxGeometry x="420" y="310" width="160" height="100" as="geometry" />
        </mxCell>
        <mxCell id="ta54Vy7XyeMduqMrXOKB-18" value="End" style="rounded=1;whiteSpace=wrap;html=1;fillColor=#dae8fc;strokeColor=#6c8ebf;" parent="1" vertex="1">
          <mxGeometry x="640" y="320" width="140" height="70" as="geometry" />
        </mxCell>
      </root>
    </mxGraphModel>
  </diagram>
</mxfile>
